<?xml version="1.0" standalone="no"?>
<!DOCTYPE svg PUBLIC "-//W3C//DTD SVG 20010904//EN"
 "http://www.w3.org/TR/2001/REC-SVG-20010904/DTD/svg10.dtd">
<svg version="1.0" xmlns="http://www.w3.org/2000/svg"
 width="121.000000pt" height="97.000000pt" viewBox="0 0 121.000000 97.000000"
 preserveAspectRatio="xMidYMid meet">

<g transform="translate(0.000000,97.000000) scale(0.100000,-0.100000)"
fill="#000000" stroke="none">
<path d="M356 909 c-14 -17 -26 -41 -26 -53 0 -13 -19 -39 -47 -66 -27 -25
-42 -38 -35 -30 14 16 16 69 2 90 -14 22 -32 -36 -25 -80 5 -28 0 -47 -24 -90
-30 -53 -31 -54 -31 -23 0 24 -8 38 -32 57 -18 14 -34 24 -35 22 -9 -9 21 -74
41 -91 23 -18 24 -24 16 -60 -5 -22 -11 -52 -14 -67 l-6 -26 -29 29 c-16 16
-36 29 -45 29 -11 0 -9 -9 11 -45 16 -29 32 -45 44 -45 10 0 19 -2 19 -4 0 -9
21 -113 26 -131 6 -18 4 -18 -19 4 -19 17 -42 25 -79 29 l-53 5 50 -41 c31
-24 64 -42 84 -44 27 -2 40 -13 78 -66 l44 -62 -37 25 c-43 29 -53 30 -124 9
l-53 -16 59 -24 c56 -24 71 -24 137 -8 20 5 35 0 60 -18 42 -33 117 -71 117
-60 0 5 -18 17 -39 27 -22 10 -50 28 -63 42 -22 24 -22 24 -3 59 18 33 18 37
2 88 -9 29 -17 64 -17 77 -1 22 -3 21 -20 -11 -10 -19 -22 -55 -26 -78 -5 -36
-3 -49 15 -72 25 -34 27 -48 5 -29 -26 21 -74 96 -74 115 0 10 10 28 22 41 17
18 24 41 28 88 l5 64 -23 -22 c-39 -36 -54 -74 -48 -120 5 -41 5 -40 -14 13
-10 30 -19 71 -19 92 -1 31 4 39 32 56 30 17 88 102 69 102 -23 -1 -87 -49
-93 -70 -6 -22 -7 -22 -8 -4 -1 31 26 116 41 125 7 5 22 9 34 9 11 0 36 16 55
36 l34 36 -40 -7 c-22 -4 -46 -12 -54 -18 -12 -10 -13 -9 -6 3 23 41 50 61 75
55 16 -3 44 2 70 14 l44 19 -36 7 c-20 4 -47 4 -60 -1 -20 -6 -18 -3 9 20 28
24 38 26 80 21 26 -3 62 -2 78 3 l30 9 -28 8 -29 8 39 39 c34 36 36 40 13 33
-51 -15 -70 -25 -70 -34 0 -6 -14 -18 -30 -26 l-30 -16 6 41 c4 22 4 40 1 40
-3 0 -17 -14 -31 -31z"/>
<path d="M670 932 c0 -13 55 -62 69 -63 9 0 -2 -6 -24 -13 l-40 -12 52 -13
c37 -9 57 -10 72 -2 28 15 34 14 67 -11 l29 -23 -50 -5 -50 -5 32 -17 c19 -11
49 -17 78 -16 l46 2 -40 39 c-23 21 -41 48 -41 60 -1 12 -14 38 -30 57 -27 30
-30 32 -30 13 0 -12 4 -33 10 -48 9 -24 9 -25 -13 -14 -12 6 -32 21 -45 32
-22 21 -92 50 -92 39z"/>
<path d="M951 837 c-7 -21 -9 -46 -5 -59 4 -13 7 -28 6 -34 -1 -6 5 -17 13
-24 22 -18 19 -33 -4 -20 -11 5 -32 10 -48 10 l-28 -1 37 -34 c23 -21 48 -35
63 -35 34 0 55 -48 61 -143 8 -109 -26 -218 -90 -295 -15 -16 -26 -33 -26 -37
0 -13 22 8 61 61 35 47 44 54 74 54 23 0 45 9 67 28 18 16 42 34 53 40 18 10
17 11 -10 12 -51 0 -103 -19 -126 -48 -16 -20 -20 -21 -15 -7 4 11 13 47 20
80 10 49 17 62 39 73 23 11 78 92 63 92 -23 0 -60 -25 -76 -52 l-20 -33 0 39
c0 21 -5 56 -12 78 -11 37 -10 41 15 61 26 21 54 87 38 87 -23 0 -60 -43 -63
-73 -3 -32 -3 -32 -36 27 -28 48 -32 63 -24 81 8 16 7 35 -2 66 l-13 43 -12
-37z"/>
<path d="M528 740 c-62 -19 -96 -49 -117 -106 -28 -73 -28 -194 0 -194 4 0 10
21 12 48 l3 47 2 -46 c1 -30 -3 -51 -12 -59 -12 -9 -13 -17 -3 -37 10 -22 15
-24 49 -19 37 6 39 5 45 -24 3 -17 9 -33 13 -35 5 -3 6 -14 3 -25 -5 -18 0
-20 56 -20 48 0 61 3 61 15 0 8 5 15 10 15 6 0 10 -7 10 -15 0 -8 5 -15 10
-15 6 0 10 11 10 24 0 14 5 28 11 31 5 4 15 18 20 32 8 21 14 24 35 19 47 -12
70 29 37 66 -14 16 -14 18 -1 13 18 -7 28 20 28 81 0 85 -46 164 -114 195 -43
19 -120 24 -168 9z m16 -216 c26 -10 20 -61 -9 -80 -31 -20 -52 -13 -65 22
-20 53 15 80 74 58z m170 0 c23 -9 22 -80 -1 -88 -18 -7 -59 18 -77 46 -20 33
30 60 78 42z m-104 -68 c0 -2 6 -19 14 -38 10 -23 11 -39 5 -49 -8 -12 -11
-11 -20 4 -9 15 -13 16 -26 5 -14 -12 -15 -9 -9 27 4 22 10 43 12 47 5 8 24
11 24 4z"/>
<path d="M952 552 c31 -53 49 -72 70 -72 12 0 18 7 18 23 0 29 -23 51 -73 72
l-36 15 21 -38z"/>
<path d="M948 397 c3 -49 9 -67 28 -85 20 -19 25 -20 29 -8 3 9 7 23 10 32 6
20 -20 75 -49 103 l-22 21 4 -63z"/>
<path d="M456 298 c5 -57 10 -67 47 -100 38 -35 45 -38 102 -38 56 0 64 3 92
33 21 21 36 50 43 82 6 28 13 58 16 68 7 23 -22 23 -35 -1 -5 -9 -12 -34 -16
-55 -7 -36 -26 -60 -32 -41 -2 5 -25 7 -53 6 -38 -3 -50 -8 -51 -20 0 -11 -4
-8 -10 8 -10 23 -11 24 -23 8 -15 -20 -36 -6 -36 24 0 28 -27 88 -40 88 -8 0
-9 -20 -4 -62z"/>
<path d="M892 343 c1 -10 -7 -42 -17 -72 -17 -52 -17 -56 0 -87 10 -18 15 -40
12 -48 -3 -8 -31 -30 -62 -47 -31 -17 -54 -33 -51 -36 6 -6 37 11 105 55 l53
35 42 -15 c39 -14 46 -14 92 3 27 11 60 19 74 19 57 0 -39 39 -103 42 -20 1
-48 -7 -64 -18 -15 -10 -38 -20 -51 -21 l-23 -2 21 29 c25 35 26 81 3 137 -19
44 -33 56 -31 26z"/>
<path d="M482 78 c-7 -7 -12 -20 -12 -29 0 -20 29 -34 43 -20 7 7 15 7 22 1
21 -17 46 0 43 29 -4 33 -39 36 -53 4 -12 -29 -35 -30 -35 -2 0 11 4 18 9 14
5 -3 12 -1 16 5 9 14 -18 13 -33 -2z m78 -32 c-14 -14 -24 0 -16 21 6 15 8 15
16 3 6 -9 5 -19 0 -24z"/>
<path d="M590 56 c0 -22 5 -36 13 -36 42 1 51 62 10 68 -20 3 -23 -1 -23 -32z
m33 9 c4 -8 2 -17 -3 -20 -6 -4 -10 3 -10 14 0 25 6 27 13 6z"/>
<path d="M650 55 c0 -30 3 -35 24 -35 14 0 28 5 31 10 5 8 11 8 19 1 10 -8 12
-2 12 23 -1 26 -4 32 -13 24 -9 -7 -13 -7 -13 1 0 6 -13 11 -30 11 -28 0 -30
-3 -30 -35z m46 10 c7 -18 -4 -37 -18 -29 -6 4 -5 10 3 15 10 6 11 9 2 9 -7 0
-13 5 -13 10 0 15 20 12 26 -5z"/>
</g>
</svg>
